# xmcd
#
# Track frame offsets:
#	150
#	12938
#	24167
#	34455
#	47772
#	57273
#	68404
#	80818
#	90517
#	104447
#	113691
#
# Disc length: 1670 seconds
#
# Revision: 1
# Processed by: cddbd v1.5.2PL0 Copyright (c) Steve Scherf et al.
# Submitted via: audiograbber 1.83.01
#
DISCID=8306840b
DTITLE=Gene Pitney - The Country Side Of Gene Pitney
DYEAR=1966
DGENRE=Country
TTITLE0=June Is As Cold As December
TTITLE1=For Me This Is Happy
TTITLE2=I'm Gonna Listen To Me
TTITLE3=She Thinks I Still Care
TTITLE4=I'm Up To My Neck In I.O.U.'s
TTITLE5=The More I Saw Of Her (The Blinder I Became)
TTITLE6=Thousand Arms (Five Hundred Hearts)
TTITLE7=Drinking From The Well Of Your Love
TTITLE8=Life To Go
TTITLE9=I'd Like To See Me Stop You
TTITLE10=Won't Take Long
EXTD=
EXTT0=
EXTT1=
EXTT2=
EXTT3=
EXTT4=
EXTT5=
EXTT6=
EXTT7=
EXTT8=
EXTT9=
EXTT10=
PLAYORDER=
